<svg width="30" height="30" viewBox="0 0 30 30" fill="none" xmlns="http://www.w3.org/2000/svg">
<rect width="30" height="30" fill="black"/>
<path d="M12.1999 6.60001C12.1999 5.82564 12.8256 5.20001 13.5999 5.20001C14.3743 5.20001 14.9999 5.82564 14.9999 6.60001H19.1999C19.9743 6.60001 20.5999 7.22564 20.5999 8.00001C20.5999 8.77439 19.9743 9.40001 19.1999 9.40001H14.9999V12.2H15.8181C16.1899 12.2 16.5443 12.3488 16.8068 12.6113L17.7956 13.6H19.1956C23.0631 13.6 26.1956 16.7325 26.1956 20.6C26.1956 21.3744 25.5699 22 24.7956 22H21.9956C21.2212 22 20.5956 21.3744 20.5956 20.6C20.5956 19.8256 19.9699 19.2 19.1956 19.2H17.6162C16.7324 20.4688 15.2581 21.3 13.5956 21.3C11.9331 21.3 10.4587 20.4688 9.57493 19.2H5.19993C4.42555 19.2 3.79993 18.5744 3.79993 17.8V15C3.79993 14.2256 4.42555 13.6 5.19993 13.6H9.39993L10.3887 12.6113C10.6512 12.3488 11.0056 12.2 11.3774 12.2H12.1956V9.40001H7.99555C7.22118 9.40001 6.59555 8.77439 6.59555 8.00001C6.59555 7.22564 7.22555 6.60001 7.99993 6.60001H12.1999Z" fill="white"/>
</svg>
